<svg xmlns="http://www.w3.org/2000/svg" version="1.1" xmlns:xlink="http://www.w3.org/1999/xlink" xmlns:svgjs="http://svgjs.dev/svgjs" width="2000" height="3146" viewBox="0 0 2000 3146"><g transform="matrix(1,0,0,1,1.07006369426756,1.2736842105261985)"><svg viewBox="0 0 157 247" data-background-color="#e0ded5" preserveAspectRatio="xMidYMid meet" height="3146" width="2000" xmlns="http://www.w3.org/2000/svg" xmlns:xlink="http://www.w3.org/1999/xlink"><g id="tight-bounds" transform="matrix(1,0,0,1,-0.08400000000000318,-0.09999999999999432)"><svg viewBox="0 0 157.16795700575815 247.2" height="247.2" width="157.16795700575815"><rect width="157.168" height="247.2" fill="url(#9db64f3b-0958-4610-a9ca-cee402a96a83)" mask="url(#44e9a115-cf23-4978-bbe7-cab34c3b047d)" data-fill-palette-color="tertiary"></rect><g><svg></svg></g><g><svg viewBox="0 0 157.16795700575815 247.2" height="247.2" width="157.16795700575815"><g transform="matrix(1,0,0,1,0,47.215199999999996)"><svg viewBox="0 0 157.16795700575815 152.7696" height="152.7696" width="157.16795700575815"><g><svg viewBox="0 0 157.16795700575815 152.7696" height="152.7696" width="157.16795700575815"><g><svg viewBox="0 0 157.16795700575815 152.7696" height="152.7696" width="157.16795700575815"><g id="textblocktransform"><svg viewBox="0 0 157.16795700575815 152.7696" height="152.7696" width="157.16795700575815" id="textblock"><g><svg viewBox="0 0 157.16795700575815 152.7696" height="152.7696" width="157.16795700575815"><g transform="matrix(1,0,0,1,0,0)"><svg width="157.16795700575815" viewBox="5.37 -38.16 39.260000000000005 38.16" height="152.7696" data-palette-color="url(#b9471546-e860-45f7-9356-dcc6de1bdc1e)"></svg></g></svg></g></svg></g></svg></g><g></g></svg></g></svg></g><path d="M0 41.215L0 1 157.168 1 157.168 41.215 143.391 41.215 143.391 14.777 13.777 14.777 13.777 41.215 0 41.215M0 205.985L0 246.2 157.168 246.2 157.168 205.985 143.391 205.985 143.391 232.423 13.777 232.423 13.777 205.985 0 205.985" fill="url(#9db64f3b-0958-4610-a9ca-cee402a96a83)" stroke="transparent" data-fill-palette-color="tertiary"></path></svg></g><defs></defs><mask id="03b269e7-0007-45e8-8bd6-2c7a4856c46b"><g id="SvgjsG3056"><svg viewBox="0 0 157.16795700575815 247.2" height="247.2" width="157.16795700575815"><g><svg></svg></g><g><svg viewBox="0 0 157.16795700575815 247.2" height="247.2" width="157.16795700575815"><g transform="matrix(1,0,0,1,0,47.215199999999996)"><svg viewBox="0 0 157.16795700575815 152.7696" height="152.7696" width="157.16795700575815"><g><svg viewBox="0 0 157.16795700575815 152.7696" height="152.7696" width="157.16795700575815"><g><svg viewBox="0 0 157.16795700575815 152.7696" height="152.7696" width="157.16795700575815"><g id="SvgjsG3055"><svg viewBox="0 0 157.16795700575815 152.7696" height="152.7696" width="157.16795700575815" id="SvgjsSvg3054"><g><svg viewBox="0 0 157.16795700575815 152.7696" height="152.7696" width="157.16795700575815"><g transform="matrix(1,0,0,1,0,0)"><svg width="157.16795700575815" viewBox="5.37 -38.16 39.260000000000005 38.16" height="152.7696" data-palette-color="url(#b9471546-e860-45f7-9356-dcc6de1bdc1e)"><path d="M5.37 0L5.37-38.16 13.11-38.16 36.89-25.71 36.89-38.16 44.63-38.16 44.63 0 36.89 0 36.89-17.5 13.11-29.88 13.11 0 5.37 0Z" opacity="1" transform="matrix(1,0,0,1,0,0)" fill="white" class="wordmark-text-0" id="SvgjsPath3053"></path></svg></g></svg></g></svg></g></svg></g><g></g></svg></g></svg></g><path d="M0 41.215L0 1 157.168 1 157.168 41.215 143.391 41.215 143.391 14.777 13.777 14.777 13.777 41.215 0 41.215M0 205.985L0 246.2 157.168 246.2 157.168 205.985 143.391 205.985 143.391 232.423 13.777 232.423 13.777 205.985 0 205.985" fill="black" stroke="transparent"></path></svg></g><defs><mask></mask></defs></svg><rect width="157.16795700575815" height="247.2" fill="black" stroke="none" visibility="hidden"></rect></g></mask><linearGradient x1="0.054" x2="0.941" y1="0.5" y2="0.5" id="b9471546-e860-45f7-9356-dcc6de1bdc1e"><stop stop-color="#0f3054" offset="0"></stop><stop stop-color="#3b8dcb" offset="0.498"></stop><stop stop-color="#0f3054" offset="1"></stop></linearGradient><rect width="157.168" height="247.2" fill="url(#b9471546-e860-45f7-9356-dcc6de1bdc1e)" mask="url(#03b269e7-0007-45e8-8bd6-2c7a4856c46b)" data-fill-palette-color="primary"></rect><mask id="44e9a115-cf23-4978-bbe7-cab34c3b047d"><g id="SvgjsG3063"><svg viewBox="0 0 157.16795700575815 247.2" height="247.2" width="157.16795700575815"><g><svg></svg></g><g><svg viewBox="0 0 157.16795700575815 247.2" height="247.2" width="157.16795700575815"><g transform="matrix(1,0,0,1,0,47.215199999999996)"><svg viewBox="0 0 157.16795700575815 152.7696" height="152.7696" width="157.16795700575815"><g><svg viewBox="0 0 157.16795700575815 152.7696" height="152.7696" width="157.16795700575815"><g><svg viewBox="0 0 157.16795700575815 152.7696" height="152.7696" width="157.16795700575815"><g id="SvgjsG3062"><svg viewBox="0 0 157.16795700575815 152.7696" height="152.7696" width="157.16795700575815" id="SvgjsSvg3061"><g><svg viewBox="0 0 157.16795700575815 152.7696" height="152.7696" width="157.16795700575815"><g transform="matrix(1,0,0,1,0,0)"><svg width="157.16795700575815" viewBox="5.37 -38.16 39.260000000000005 38.16" height="152.7696" data-palette-color="url(#b9471546-e860-45f7-9356-dcc6de1bdc1e)"></svg></g></svg></g></svg></g></svg></g><g></g></svg></g></svg></g><path d="M0 41.215L0 1 157.168 1 157.168 41.215 143.391 41.215 143.391 14.777 13.777 14.777 13.777 41.215 0 41.215M0 205.985L0 246.2 157.168 246.2 157.168 205.985 143.391 205.985 143.391 232.423 13.777 232.423 13.777 205.985 0 205.985" fill="white" stroke="transparent"></path></svg></g><defs><mask></mask></defs><mask><g id="SvgjsG3060"><svg viewBox="0 0 157.16795700575815 247.2" height="247.2" width="157.16795700575815"><g><svg></svg></g><g><svg viewBox="0 0 157.16795700575815 247.2" height="247.2" width="157.16795700575815"><g transform="matrix(1,0,0,1,0,47.215199999999996)"><svg viewBox="0 0 157.16795700575815 152.7696" height="152.7696" width="157.16795700575815"><g><svg viewBox="0 0 157.16795700575815 152.7696" height="152.7696" width="157.16795700575815"><g><svg viewBox="0 0 157.16795700575815 152.7696" height="152.7696" width="157.16795700575815"><g id="SvgjsG3059"><svg viewBox="0 0 157.16795700575815 152.7696" height="152.7696" width="157.16795700575815" id="SvgjsSvg3058"><g><svg viewBox="0 0 157.16795700575815 152.7696" height="152.7696" width="157.16795700575815"><g transform="matrix(1,0,0,1,0,0)"><svg width="157.16795700575815" viewBox="5.37 -38.16 39.260000000000005 38.16" height="152.7696" data-palette-color="url(#b9471546-e860-45f7-9356-dcc6de1bdc1e)"><path d="M5.37 0L5.37-38.16 13.11-38.16 36.89-25.71 36.89-38.16 44.63-38.16 44.63 0 36.89 0 36.89-17.5 13.11-29.88 13.11 0 5.37 0Z" opacity="1" transform="matrix(1,0,0,1,0,0)" fill="black" class="wordmark-text-0" id="SvgjsPath3057"></path></svg></g></svg></g></svg></g></svg></g><g></g></svg></g></svg></g><path d="M0 41.215L0 1 157.168 1 157.168 41.215 143.391 41.215 143.391 14.777 13.777 14.777 13.777 41.215 0 41.215M0 205.985L0 246.2 157.168 246.2 157.168 205.985 143.391 205.985 143.391 232.423 13.777 232.423 13.777 205.985 0 205.985" fill="black" stroke="transparent"></path></svg></g><defs><mask></mask></defs></svg><rect width="157.16795700575815" height="247.2" fill="black" stroke="none" visibility="hidden"></rect></g></mask></svg><rect width="157.16795700575815" height="247.2" fill="black" stroke="none" visibility="hidden"></rect></g></mask><linearGradient x1="0.054" x2="0.941" y1="0.5" y2="0.5" id="9db64f3b-0958-4610-a9ca-cee402a96a83"><stop stop-color="#26282a" offset="0"></stop><stop stop-color="#9e9fa0" offset="0.498"></stop><stop stop-color="#26282a" offset="1"></stop></linearGradient></svg><rect width="157.16795700575815" height="247.2" fill="none" stroke="none" visibility="hidden"></rect></g></svg></g></svg>